<svg viewBox="0 0 24 24" xmlns="http://www.w3.org/2000/svg">
    <path
        d="M23.077 11.075h-6.462a3.71 3.71 0 0 0-3.692 3.693 3.71 3.71 0 0 0 3.692 3.692h3.693v2.77a.927.927 0 0 1-.923.922H4.615c-1.519 0-2.769-1.25-2.769-2.77V5.538c0-1.52 1.25-2.77 2.77-2.77h1.846a.927.927 0 0 0 .923-.923.927.927 0 0 0-.923-.923H4.615C2.083.921 0 3.005 0 5.537v13.846c0 2.532 2.083 4.615 4.615 4.615h14.77c1.519 0 2.769-1.25 2.769-2.769v-2.77h.923a.927.927 0 0 0 .923-.922v-5.539a.927.927 0 0 0-.923-.923Zm-.923 5.539h-5.539a1.855 1.855 0 0 1-1.846-1.847c0-1.012.834-1.846 1.846-1.846h5.539v3.693Z" />
    <path
        d="M4.283 4.678c-1.03.45-.69 1.782.332 1.782h14.77c.506 0 .923.416.923.923v.923c0 .507.416.923.923.923a.927.927 0 0 0 .923-.923v-.923a2.77 2.77 0 0 0-2.77-2.77h-.295L17.474.58a.928.928 0 0 0-1.19-.517l-12 4.615Zm12.812-.064H9.591l6.508-2.502.996 2.502Z" />
</svg>