<svg viewBox="0 0 14 12" xmlns="http://www.w3.org/2000/svg">
    <path
        d="M9.917 2.406c-.001-.638-.248-1.25-.686-1.7A2.31 2.31 0 0 0 7.577 0H2.34A2.31 2.31 0 0 0 .686.706 2.444 2.444 0 0 0 0 2.406c0 .604.22 1.187.62 1.63L3.5 7.253v2.342c0 .283.129.548.348.718l1.166.906a.862.862 0 0 0 .917.086.885.885 0 0 0 .354-.331.92.92 0 0 0 .132-.473V7.252l2.88-3.215c.4-.444.62-1.027.62-1.631Zm-1.907.411L4.958 6.223 1.906 2.817a.612.612 0 0 1-.107-.654.601.601 0 0 1 .217-.265.577.577 0 0 1 .323-.098h5.238c.114 0 .226.035.322.1a.603.603 0 0 1 .217.263.623.623 0 0 1-.106.654ZM14 11.1a.913.913 0 0 1-.256.636.863.863 0 0 1-.619.264H8.458a.863.863 0 0 1-.618-.264.913.913 0 0 1-.257-.636c0-.239.093-.468.257-.636a.863.863 0 0 1 .618-.264h4.667c.232 0 .455.095.619.264A.913.913 0 0 1 14 11.1Zm0-3a.913.913 0 0 1-.256.636.863.863 0 0 1-.619.264H8.458a.863.863 0 0 1-.618-.264.913.913 0 0 1-.257-.636c0-.239.093-.468.257-.636a.863.863 0 0 1 .618-.264h4.667c.232 0 .455.095.619.264A.913.913 0 0 1 14 8.1Zm-3.792-3c0-.239.092-.468.257-.636a.863.863 0 0 1 .618-.264h2.042c.232 0 .455.095.619.264A.913.913 0 0 1 14 5.1a.913.913 0 0 1-.256.636.863.863 0 0 1-.619.264h-2.042a.863.863 0 0 1-.618-.264.913.913 0 0 1-.257-.636Z" />
</svg>