<svg viewBox="0 0 14 20" xmlns="http://www.w3.org/2000/svg">
    <path
        d="M12.264 8.345a.769.769 0 0 0-.662.554c-.348 1.218-1.182 1.59-1.858 1.415-.141-.036-.837-.256-.66-1.033l.128-.543C9.767 6.401 10.292 4.193 7.099 1a.77.77 0 0 0-1.286.34C5.24 3.447 4.027 4.86 2.855 6.227 1.45 7.863 0 9.556 0 12.225a7.008 7.008 0 0 0 6.99 7H7.004l.017-.001c3.85-.012 6.979-3.146 6.979-7 0-1.47-.747-3.026-.976-3.468a.765.765 0 0 0-.76-.411Zm-5.258 9.343h-.005c-1.31-.003-2.668-1.31-2.741-2.639a3.66 3.66 0 0 1 .545-2.156c.153.879.513 1.565 1.077 2.052.78.673 1.882.916 3.282.724-.373 1.15-1.241 2.017-2.158 2.019Zm3.545-1.32c.187-.51.307-1.062.334-1.642a.767.767 0 0 0-.966-.779c-.989.265-2.317.451-3.033-.166-.672-.58-.684-1.827-.576-2.771a.768.768 0 0 0-1.256-.678c-1.646 1.37-2.43 2.985-2.33 4.802.012.2.044.397.087.592a5.436 5.436 0 0 1-1.273-3.5c0-2.1 1.151-3.443 2.484-4.998.997-1.162 2.102-2.45 2.836-4.207 1.647 2.039 1.322 3.412.858 5.363-.043.182-.087.367-.13.555-.301 1.319.445 2.524 1.775 2.865.961.246 2.078-.027 2.877-.909.135.453.224.917.224 1.33a5.45 5.45 0 0 1-1.912 4.144Z" />
</svg>