<svg viewBox="0 0 121 28" xmlns="http://www.w3.org/2000/svg">
    <path
        d="M23.96 0H4.398a4.218 4.218 0 0 0-4.22 4.218v19.564A4.22 4.22 0 0 0 4.398 28H23.96a4.22 4.22 0 0 0 4.22-4.218V4.218A4.218 4.218 0 0 0 23.96 0Zm2.129 23.756a2.152 2.152 0 0 1-2.153 2.15H4.422a2.15 2.15 0 0 1-2.15-2.15V4.244a2.153 2.153 0 0 1 2.15-2.152h19.511a2.153 2.153 0 0 1 2.153 2.152l.003 19.512Z" />
    <path
        d="M15.583 3.374h-2.704c-.871 0-1.578.707-1.578 1.578v2.701c0 .872.707 1.578 1.578 1.578h2.704c.871 0 1.578-.706 1.578-1.578v-2.7c0-.872-.707-1.579-1.578-1.579ZM7.988 3.374H5.284c-.872 0-1.578.707-1.578 1.578v2.701c0 .872.706 1.578 1.578 1.578h2.704c.871 0 1.578-.706 1.578-1.578v-2.7c0-.872-.707-1.579-1.578-1.579ZM23.17 3.374h-2.696c-.871 0-1.578.707-1.578 1.578v2.701c0 .872.707 1.578 1.578 1.578h2.696c.872 0 1.578-.706 1.578-1.578v-2.7c0-.872-.706-1.579-1.578-1.579ZM7.988 18.556H5.284c-.872 0-1.578.706-1.578 1.578v2.696c0 .871.706 1.578 1.578 1.578h2.704c.871 0 1.578-.707 1.578-1.578v-2.696c0-.872-.707-1.578-1.578-1.578ZM7.988 10.966H5.284c-.872 0-1.578.707-1.578 1.578v2.701c0 .872.706 1.578 1.578 1.578h2.704c.871 0 1.578-.706 1.578-1.578v-2.7c0-.872-.707-1.579-1.578-1.579ZM15.583 10.966h-2.704c-.871 0-1.578.707-1.578 1.578v2.701c0 .872.707 1.578 1.578 1.578h2.704c.871 0 1.578-.706 1.578-1.578v-2.7c0-.872-.707-1.579-1.578-1.579ZM23.17 10.966h-2.696c-.871 0-1.578.707-1.578 1.578v2.701c0 .872.707 1.578 1.578 1.578h2.696c.872 0 1.578-.706 1.578-1.578v-2.7c0-.872-.706-1.579-1.578-1.579ZM53.531 2.964h-2.018a.677.677 0 0 0-.564.308l-5.272 7.38c-.252.375-.517.36-.697 0l-3.444-7.276a.602.602 0 0 0-.568-.403H37.48c-.341 0-.64 0-.682.588l-.043.474c0 .284.19.45.474.473.398 0 .53.213.426.9l-1.468 14.014a.474.474 0 0 0 .426.554h2.762a.474.474 0 0 0 .474-.422l.876-8.134c.038-.341.422-.474.583-.085l1.852 4.207a1.634 1.634 0 0 0 1.483.975 1.895 1.895 0 0 0 1.942-1l2.81-4.187c.203-.384.639-.242.587.128l-.848 8.01a.473.473 0 0 0 .474.512h2.624a.521.521 0 0 0 .554-.473L54.412 3.65c.01-.64-.142-.687-.88-.687ZM66.38 8.25a.474.474 0 0 1 .473.517l-1.34 12.97c-.09.91-.645 1.687-1.654 2.332a6.367 6.367 0 0 1-3.51.97h-3.165a.473.473 0 0 1-.474-.52l.062-.607a.473.473 0 0 1 .473-.421h3.99a.474.474 0 0 0 .473-.422l.26-2.568a.474.474 0 0 0-.473-.52h-.682a6.22 6.22 0 0 1-3.473-.877 2.7 2.7 0 0 1-1.307-2.677l.63-6.158a.436.436 0 0 0-.436-.474.436.436 0 0 1-.436-.474l.066-.644a.474.474 0 0 1 .474-.417h3.7a.473.473 0 0 1 .474.516l-.848 8.234c-.089.947.357 1.421 1.336 1.421h.781a.474.474 0 0 0 .474-.422l.948-9.313a.474.474 0 0 1 .473-.422l2.71-.024ZM72.538 10.8l-.147 1.373a.474.474 0 0 1-.474.417h-3.89a.476.476 0 0 1-.473-.516l.142-1.374a.473.473 0 0 1 .474-.417h3.894a.473.473 0 0 1 .474.516ZM85.447 2.959a.474.474 0 0 1 .474.521l-1.45 14.098a.668.668 0 0 0 .517.815.474.474 0 0 1 .336.521l-.071.65a.474.474 0 0 1-.474.416h-1.137a3.411 3.411 0 0 1-2.132-.61 1.896 1.896 0 0 1-.682-1.792l.474-4.817a.473.473 0 0 0-.474-.517h-2.525a.474.474 0 0 0-.474.422l-.705 6.893a.474.474 0 0 1-.474.421h-2.69a.475.475 0 0 1-.475-.516L74.992 5.02a.474.474 0 0 0-.474-.512.474.474 0 0 1-.474-.512l.062-.615a.474.474 0 0 1 .474-.422h3.728a.474.474 0 0 1 .474.521l-.687 6.699a.474.474 0 0 0 .474.516h2.496a.474.474 0 0 0 .474-.421l.706-6.893a.473.473 0 0 1 .474-.422h2.728ZM97.007 11.538l-.545 5.164c-.09.91-.64 1.681-1.64 2.321a6.368 6.368 0 0 1-3.496.948h-.55a5.837 5.837 0 0 1-3.192-.83 2.448 2.448 0 0 1-1.284-2.449l.545-5.154c.109-1.014.71-1.833 1.805-2.45a6.556 6.556 0 0 1 3.316-.828h.573a5.784 5.784 0 0 1 3.17.829 2.472 2.472 0 0 1 1.297 2.449Zm-3.658 0a1.668 1.668 0 0 0-.289-1.27 1.204 1.204 0 0 0-.97-.44c-.388 0-.76.15-1.038.417-.34.348-.544.807-.574 1.293l-.52 5.173a1.62 1.62 0 0 0 .302 1.246 1.28 1.28 0 0 0 .948.474 1.421 1.421 0 0 0 1.052-.427c.339-.353.538-.818.559-1.307l.53-5.16ZM102.823 2.959a.476.476 0 0 1 .452.325c.021.063.028.13.021.196l-1.388 13.615c-.075.687.166 1.114.725 1.275a.476.476 0 0 1 .356.473l-.1 1.118h-.602a5.265 5.265 0 0 1-3.084-.772 2.16 2.16 0 0 1-.947-2.113l1.26-12.104a.436.436 0 0 0-.436-.473.436.436 0 0 1-.436-.474l.067-.644a.473.473 0 0 1 .473-.422h3.639ZM111.214 19.175a6.278 6.278 0 0 1-3.316.805l-3.819.024a.477.477 0 0 1-.452-.325.465.465 0 0 1-.021-.196l.066-.626a.472.472 0 0 1 .474-.421h2.501c1.127 0 1.696-.474 1.696-1.365a1.82 1.82 0 0 0-.602-1.34l-2.188-2.099a3.11 3.11 0 0 1-1.066-2.24 2.621 2.621 0 0 1 1.506-2.37 6.16 6.16 0 0 1 3.169-.762h2.483a.477.477 0 0 1 .451.322.475.475 0 0 1 .023.194l-.062.611a.475.475 0 0 1-.474.417h-1.734c-.909 0-1.369.232-1.369.697.017.283.145.549.356.739l2.681 2.795a3.852 3.852 0 0 1 1.227 2.653 2.81 2.81 0 0 1-1.53 2.487ZM120.996 8.767l-.066.611a.472.472 0 0 1-.474.417h-.711a.475.475 0 0 0-.473.422l-.725 6.902a.994.994 0 0 0 .109.762.995.995 0 0 0 .616.46.473.473 0 0 1 .355.498l-.076.72a.472.472 0 0 1-.474.422h-.862a3.893 3.893 0 0 1-2.487-.716 2.245 2.245 0 0 1-.843-2.146l.71-6.803a.465.465 0 0 0-.12-.366.485.485 0 0 0-.353-.155h-.403a.477.477 0 0 1-.451-.322.475.475 0 0 1-.023-.194l.067-.611a.47.47 0 0 1 .473-.417h.602a.472.472 0 0 0 .474-.427l.184-1.894a.474.474 0 0 1 .474-.427h2.715a.476.476 0 0 1 .452.325c.021.063.028.13.021.196l-.184 1.687a.465.465 0 0 0 .12.366.485.485 0 0 0 .353.155h.536a.467.467 0 0 1 .352.163.468.468 0 0 1 .112.372Z" />
</svg>