<svg viewBox="0 0 16 16" xmlns="http://www.w3.org/2000/svg">
    <path
        d="M8 0H1.6A1.602 1.602 0 0 0 0 1.6v12.8A1.602 1.602 0 0 0 1.6 16H8a1.602 1.602 0 0 0 1.6-1.6V1.6A1.602 1.602 0 0 0 8 0Zm0 14.4H1.6V1.6H8l.001 12.8H8Zm6.4-8h-3.2a.8.8 0 1 0 0 1.6h3.2v6.4h-3.2a.8.8 0 1 0 0 1.6h3.2a1.602 1.602 0 0 0 1.6-1.6V8a1.602 1.602 0 0 0-1.6-1.6Zm-3.066-3.156a.8.8 0 0 0 1.45-.287l.058-.286c.862.27 1.558.875 1.558 2.13a.8.8 0 0 0 1.6 0c0-1.873-1.055-3.195-2.845-3.697l.03-.147a.8.8 0 0 0-1.229-.823l-1.2.8a.8.8 0 0 0-.222 1.11l.8 1.2Z" />
</svg>