<svg viewBox="0 0 24 24" xmlns="http://www.w3.org/2000/svg">
    <g clip-path="url(#a)">
        <path
            d="M18 2c2.206 0 4 1.794 4 4v12c0 2.206-1.794 4-4 4H6c-2.206 0-4-1.794-4-4V6c0-2.206 1.794-4 4-4h12Zm0-2H6a6 6 0 0 0-6 6v12a6 6 0 0 0 6 6h12a6 6 0 0 0 6-6V6a6 6 0 0 0-6-6Z" />
        <path
            d="M17.62 9.62h-5.25c-.41 0-.75-.34-.75-.75s.34-.75.75-.75h5.25a.75.75 0 1 1 0 1.5Zm-10.5.76c-.19 0-.38-.07-.53-.22l-.75-.75a.754.754 0 0 1 0-1.06c.29-.29.77-.29 1.06 0l.22.22 1.72-1.72c.29-.29.77-.29 1.06 0 .29.29.29.77 0 1.06l-2.25 2.25a.75.75 0 0 1-.53.22Zm10.5 6.24h-5.25c-.41 0-.75-.34-.75-.75s.34-.75.75-.75h5.25a.75.75 0 1 1 0 1.5Zm-10.5.76c-.19 0-.38-.07-.53-.22l-.75-.75a.754.754 0 0 1 0-1.06c.29-.29.77-.29 1.06 0l.22.22 1.72-1.72c.29-.29.77-.29 1.06 0 .29.29.29.77 0 1.06l-2.25 2.25a.75.75 0 0 1-.53.22Z" />
    </g>
    <defs>
        <clipPath id="a">
            <path d="M0 0h24v24H0z" />
        </clipPath>
    </defs>
</svg>