<svg viewBox="0 0 24 24" fill="none" xmlns="http://www.w3.org/2000/svg">
    <path
        d="M23.062 16.61h-3.64a2.813 2.813 0 0 0-2.813 2.812v3.64m6.453-6.453a4.451 4.451 0 0 1-1.303 3.148l-2.002 2.002a4.452 4.452 0 0 1-3.148 1.303m6.453-6.453V5.632A4.695 4.695 0 0 0 18.368.938H5.632A4.695 4.695 0 0 0 .938 5.632v12.736a4.695 4.695 0 0 0 4.694 4.695h10.977M6.47 17.53H12M6.469 6.47H17.53M6.47 12H17.53"
        stroke="currentColor" stroke-width="2" stroke-miterlimit="10" stroke-linecap="round" stroke-linejoin="round" />
</svg>