<svg viewBox="0 0 24 24" xmlns="http://www.w3.org/2000/svg">
    <path
        d="M23.966 5.785c.057 1.35.035 2.335-.015 3.054-.084 1.192-1.066 2.135-2.31 2.24-.714.057-1.687.1-3 .1h-.176c-1.404-.004-2.428-.053-3.178-.121a2.582 2.582 0 0 1-2.344-2.343c-.067-.748-.117-1.774-.12-3.178-.004-1.404.038-2.427.1-3.177.104-1.244 1.046-2.225 2.242-2.31.42-.03.93-.05 1.55-.05l-.002.002c.444 0 .941.01 1.504.034 1.35.06 2.34.165 3.065.274 1.2.185 2.225 1.21 2.41 2.41.11.725.217 1.715.274 3.065Zm-1.792 2.929c.055-.792.06-1.75.013-2.854a27.5 27.5 0 0 0-.255-2.87c-.068-.431-.49-.852-.921-.92-.952-.135-1.91-.22-2.871-.254a33.644 33.644 0 0 0-1.427-.033l.002-.002c-.52 0-1 .017-1.426.047-.308.024-.558.305-.59.68a37.379 37.379 0 0 0-.093 3.024 36.02 36.02 0 0 0 .113 3.024c.034.386.34.692.725.728.8.071 1.818.11 3.025.113h.172c1.125 0 2.085-.032 2.853-.094.372-.031.658-.28.68-.59Zm1.777 6.45c.05.719.073 1.704.014 3.054a28.876 28.876 0 0 1-.274 3.063c-.185 1.2-1.21 2.226-2.412 2.411-.724.11-1.713.216-3.063.274-.563.024-1.061.034-1.504.034-.62 0-1.128-.02-1.55-.05-1.193-.082-2.136-1.064-2.24-2.308-.061-.747-.104-1.773-.1-3.177.003-1.404.053-2.428.12-3.178a2.582 2.582 0 0 1 2.344-2.343c.748-.067 1.772-.116 3.178-.12h.177c1.313 0 2.284.043 3 .1 1.244.105 2.226 1.048 2.31 2.24Zm-1.764 2.973a26.137 26.137 0 0 0-.013-2.852c-.023-.308-.307-.558-.68-.59a36.69 36.69 0 0 0-2.853-.093v.003h-.171a36.116 36.116 0 0 0-3.025.113.801.801 0 0 0-.728.725c-.072.8-.11 1.823-.113 3.024a37.275 37.275 0 0 0 .094 3.025c.031.372.279.657.589.68.425.029.905.044 1.426.044.444 0 .923-.01 1.428-.033a27.6 27.6 0 0 0 2.87-.255c.432-.067.853-.488.92-.92.136-.952.22-1.91.256-2.87ZM11.08 2.36c.061.747.104 1.772.1 3.177-.004 1.404-.053 2.43-.12 3.177a2.583 2.583 0 0 1-2.344 2.344c-.747.067-1.771.116-3.178.12h-.18c-1.312 0-2.284-.042-3-.1C1.116 10.974.134 10.03.05 8.838 0 8.12-.025 7.134.035 5.784c.06-1.35.164-2.339.274-3.064.185-1.2 1.21-2.225 2.41-2.41C3.445.2 4.434.096 5.784.036A36.268 36.268 0 0 1 7.289.002v.003c.62 0 1.13.017 1.55.047 1.193.083 2.135 1.064 2.241 2.308ZM9.397 5.535a37.424 37.424 0 0 0-.094-3.026c-.032-.372-.28-.657-.589-.679a19.316 19.316 0 0 0-1.425-.047c-.445 0-.924.011-1.43.033-.96.034-1.918.12-2.87.254-.43.068-.852.489-.92.92-.135.952-.22 1.91-.255 2.87a26.244 26.244 0 0 0 .012 2.857c.024.307.308.557.68.588.767.062 1.726.094 2.851.094h.175a36.206 36.206 0 0 0 3.024-.113.802.802 0 0 0 .728-.728c.072-.8.11-1.817.113-3.023Zm1.781 12.928c.004 1.404-.039 2.43-.1 3.177-.103 1.244-1.047 2.226-2.24 2.309-.419.03-.929.05-1.55.05-.442 0-.942-.011-1.504-.035a28.887 28.887 0 0 1-3.063-.274C1.519 23.505.496 22.48.309 21.28a28.709 28.709 0 0 1-.274-3.064C-.023 16.865 0 15.879.05 15.16c.083-1.193 1.065-2.136 2.31-2.24a37.63 37.63 0 0 1 3-.1l.177.001c1.403.004 2.428.053 3.178.12a2.583 2.583 0 0 1 2.343 2.344c.067.747.116 1.774.12 3.178ZM9.303 21.49c.066-.808.097-1.826.094-3.024a36.207 36.207 0 0 0-.113-3.023.802.802 0 0 0-.728-.728c-.8-.072-1.817-.11-3.024-.113H5.36c-1.127 0-2.087.032-2.854.094-.373.031-.659.28-.68.59-.055.79-.06 1.75-.013 2.853.035.96.12 1.917.255 2.868.068.432.489.853.92.921.953.135 1.911.22 2.872.255a33.8 33.8 0 0 0 1.428.032c.52 0 1-.015 1.426-.044.307-.022.557-.306.588-.68Z" />
</svg>