<svg width="24" height="24" xmlns="http://www.w3.org/2000/svg">
    <path fill-rule="evenodd" clip-rule="evenodd"
        d="M9.744 0h4.512c1.516 0 2.711 0 3.673.079.98.08 1.799.246 2.544.625a6.461 6.461 0 0 1 2.823 2.825c.38.743.545 1.563.625 2.542C24 7.033 24 8.228 24 9.744v4.512c0 1.516 0 2.711-.079 3.673a8.886 8.886 0 0 1-.24 1.52l.076.098-.132.102a4.97 4.97 0 0 1-.329.822 6.462 6.462 0 0 1-2.825 2.825c-.743.38-1.563.545-2.542.625-.962.079-2.157.079-3.673.079H9.744c-1.516 0-2.711 0-3.673-.079-.98-.08-1.799-.246-2.542-.625a6.462 6.462 0 0 1-2.825-2.825c-.38-.743-.545-1.563-.625-2.542C0 16.967 0 15.772 0 14.256V9.744c0-1.516 0-2.711.079-3.673.08-.98.246-1.799.625-2.542A6.461 6.461 0 0 1 3.529.704C4.272.324 5.092.159 6.07.079 7.033 0 8.228 0 9.744 0Zm12.41 14.215c0 1.364 0 2.388-.048 3.21l-.394-.507-.025-.032c-.457-.586-.835-1.072-1.175-1.44-.352-.379-.726-.701-1.196-.9a3.385 3.385 0 0 0-2.258-.13c-.49.141-.898.42-1.292.758-.387.344-.76.703-1.117 1.077L12.36 13.5l-.025-.03c-.458-.55-.837-1.006-1.178-1.352-.352-.357-.723-.661-1.185-.844a3.385 3.385 0 0 0-2.207-.101c-.476.14-.874.407-1.258.732-.369.311-.79.732-1.296 1.238l-.027.027-3.325 3.326c-.012-.76-.017-1.52-.014-2.28v-4.43c0-1.566 0-2.686.073-3.563.07-.867.205-1.416.43-1.855a4.615 4.615 0 0 1 2.018-2.019c.44-.224.988-.36 1.855-.43.877-.07 1.997-.072 3.563-.072h4.43c1.566 0 2.686 0 3.562.073.867.07 1.416.205 1.856.43a4.615 4.615 0 0 1 2.019 2.018c.224.44.36.988.43 1.855.07.877.072 1.997.072 3.563v4.43ZM2.35 19.633a3.34 3.34 0 0 1-.269-.748l.111-.11 4.298-4.3c.541-.541.906-.905 1.21-1.16.295-.25.462-.335.588-.372.33-.098.683-.082 1.003.045.122.05.28.15.553.425.278.283.608.68 1.098 1.268l2.939 3.536.01.012 3.342 3.887c-.788.037-1.758.038-3.018.038h-4.43c-1.566 0-2.686 0-3.563-.073-.867-.07-1.416-.205-1.855-.43a4.612 4.612 0 0 1-2.017-2.018Zm17.283 2.019a3.469 3.469 0 0 1-.263.118l-.452-.526-3.074-3.576c.49-.499.834-.845 1.123-1.092.307-.262.48-.35.607-.388a1.54 1.54 0 0 1 1.027.06c.122.051.283.16.557.453.28.302.61.726 1.095 1.35l1.331 1.709a4.618 4.618 0 0 1-1.95 1.892ZM15.385 8.308a1.539 1.539 0 1 1 3.077 0 1.539 1.539 0 0 1-3.077 0Zm1.538-3.385a3.385 3.385 0 1 0 0 6.77 3.385 3.385 0 0 0 0-6.77Z" />
</svg>