<svg viewBox="0 0 24 24" xmlns="http://www.w3.org/2000/svg">
    <path
        d="M16.941 16.941v6.353a.706.706 0 0 1-.706.706H3.882a.706.706 0 0 1-.706-.706v-6.353h-.352C1.149 16.941 0 14.835 0 12.353c0-1.61.483-3.06 1.28-3.882C.482 7.649 0 6.198 0 4.588 0 2.106 1.149 0 2.824 0h18.352C22.851 0 24 2.106 24 4.588c0 1.61-.483 3.06-1.28 3.883.797.821 1.28 2.272 1.28 3.882 0 2.482-1.149 4.588-2.823 4.588H16.94Zm4.236-9.176c.664 0 1.411-1.37 1.411-3.177 0-1.806-.747-3.176-1.412-3.176-.664 0-1.411 1.37-1.411 3.176s.747 3.177 1.412 3.177Zm-2.824-3.177c0-1.217.276-2.344.755-3.176H2.824c-.665 0-1.412 1.37-1.412 3.176s.747 3.177 1.412 3.177h16.284c-.479-.833-.755-1.96-.755-3.177Zm2.823 10.941c.665 0 1.412-1.37 1.412-3.176s-.747-3.177-1.412-3.177c-.664 0-1.411 1.37-1.411 3.177 0 1.806.747 3.176 1.412 3.176Zm-8.677.913 3.03 3.03v-7.12c0-1.216.277-2.343.756-3.176H6c-.664 0-1.412 1.37-1.412 3.177v6.766l1.972-1.971a.706.706 0 0 1 .998 0l1.618 1.619 2.325-2.325a.706.706 0 0 1 .998 0Zm5.854-7.266c-.664 0-1.412 1.37-1.412 3.177v3.176h2.167c-.479-.832-.755-1.959-.755-3.176s.276-2.344.755-3.177h-.755Zm-15.53 0c-.664 0-1.411 1.37-1.411 3.177 0 1.806.747 3.176 1.412 3.176h.352v-3.176c0-1.217.277-2.344.756-3.177H2.824ZM15.53 22.588v-1.12L12 17.94l-3.383 3.384a.706.706 0 0 1-.998-.998l.56-.56-1.12-1.12-2.47 2.47v1.473h10.94Zm-7.764-6.706a2.118 2.118 0 1 1 0-4.235 2.118 2.118 0 0 1 0 4.235Zm0-1.411a.706.706 0 1 0 0-1.412.706.706 0 0 0 0 1.412Z" />
</svg>