<svg viewBox="0 0 16 16" xmlns="http://www.w3.org/2000/svg">
    <path
        d="M14.4 6.4H1.6A1.602 1.602 0 0 0 0 8v6.4A1.602 1.602 0 0 0 1.6 16h12.8a1.602 1.602 0 0 0 1.6-1.6V8a1.602 1.602 0 0 0-1.6-1.6Zm0 8H1.6V8h12.8v6.4ZM.8 5.6a.8.8 0 0 0 .8-.8V1.6H8v3.2a.8.8 0 0 0 1.6 0V1.6A1.602 1.602 0 0 0 8 0H1.6A1.602 1.602 0 0 0 0 1.6v3.2a.8.8 0 0 0 .8.8Zm10.4-4c1.254 0 1.86.695 2.129 1.558l-.286.058a.8.8 0 0 0-.287 1.45l1.2.8a.8.8 0 0 0 1.11-.222l.8-1.2a.801.801 0 0 0-.823-1.228l-.147.029C14.394 1.055 13.072 0 11.2 0a.8.8 0 1 0 0 1.6Z" />
</svg>