<svg viewBox="0 0 12 15" xmlns="http://www.w3.org/2000/svg">
    <path
        d="M.89 6.072a.734.734 0 0 1-.416-.112.501.501 0 0 1-.208-.32.785.785 0 0 1 .072-.464L2.33.888c.096-.208.213-.36.352-.456A.86.86 0 0 1 3.17.288c.181 0 .338.048.472.144.138.096.258.248.36.456l1.992 4.288c.085.17.114.325.088.464a.45.45 0 0 1-.2.32.68.68 0 0 1-.4.112c-.214 0-.379-.048-.496-.144-.112-.096-.214-.25-.304-.464l-.299-.608H1.946l-.296.608c-.096.213-.195.368-.296.464-.102.096-.256.144-.464.144Zm2.264-4.176-.819 1.832h1.637L3.17 1.896h-.016ZM4.546 14.072c-.235 0-.416-.064-.544-.192-.128-.133-.192-.32-.192-.56v-1.424h-.36a.871.871 0 0 0-.24.032.647.647 0 0 0-.192.096.531.531 0 0 0-.152.184l-.784 1.432c-.096.181-.216.304-.36.368a.698.698 0 0 1-.44.048.757.757 0 0 1-.376-.184.649.649 0 0 1-.192-.368c-.027-.15.008-.315.104-.496l.328-.608c.112-.208.258-.37.44-.488.181-.117.384-.176.608-.176h.344l.024.144c-.635 0-1.128-.157-1.48-.472-.347-.315-.52-.741-.52-1.28 0-.368.077-.683.232-.944.16-.267.389-.47.688-.608.298-.144.658-.216 1.08-.216h1.952c.25 0 .44.067.568.2.133.128.2.315.2.56v4.2c0 .24-.064.427-.192.56-.123.128-.304.192-.544.192Zm-1.712-3.216h.976V9.488h-.976c-.283 0-.499.059-.648.176-.15.112-.224.28-.224.504 0 .235.074.408.224.52.149.112.365.168.648.168ZM9.991 13.767l1.556-1.556a.752.752 0 0 0 0-1.089.752.752 0 0 0-1.089 0l-.233.234V.778A.78.78 0 0 0 9.447 0a.78.78 0 0 0-.778.778v10.578l-.233-.234a.752.752 0 0 0-1.089 0 .752.752 0 0 0 0 1.09l1.556 1.555a.84.84 0 0 0 .544.233.84.84 0 0 0 .544-.233Z" />
</svg>